<svg width="102" height="30" viewBox="0 0 102 30" fill="none" xmlns="http://www.w3.org/2000/svg">
<path d="M20.1775 2.04473L25.2553 5.46979L11.2028 26.3035C10.753 26.9703 10.1763 27.542 9.50556 27.986C8.83483 28.4299 8.08322 28.7374 7.29365 28.8909C6.50408 29.0444 5.69202 29.0408 4.90382 28.8805C4.11562 28.7201 3.36672 28.4061 2.69989 27.9563C1.35316 27.0479 0.422442 25.6418 0.112481 24.0471C-0.197479 22.4525 0.13871 20.8001 1.04709 19.4534L11.6746 3.69753C12.5829 2.3508 13.9891 1.42008 15.5837 1.11012C17.1783 0.80016 18.8307 1.13635 20.1775 2.04473Z" fill="#151DED"/>
<path d="M37.5525 2.04472C38.8992 2.9531 39.8299 4.35926 40.1399 5.95387C40.4498 7.54847 40.1136 9.2009 39.2053 10.5476L28.5778 26.3035C27.6694 27.6502 26.2633 28.5809 24.6687 28.8909C23.074 29.2009 21.4216 28.8647 20.0749 27.9563L14.997 24.5312L29.0496 3.69751C29.9579 2.35078 31.3641 1.42007 32.9587 1.11011C34.5533 0.800145 36.2057 1.13633 37.5525 2.04472Z" fill="#151DED"/>
<path d="M36.4695 29C38.5571 29 40.2495 27.3076 40.2495 25.22C40.2495 23.1324 38.5571 21.44 36.4695 21.44C34.3818 21.44 32.6895 23.1324 32.6895 25.22C32.6895 27.3076 34.3818 29 36.4695 29Z" fill="#151DED"/>
<path d="M48.7201 18.6062C48.8206 18.824 48.8708 19.1087 48.8708 19.4604V26.1436C48.8708 26.6126 48.8206 27.0062 48.7201 27.3244C48.6363 27.6259 48.5107 27.8688 48.3432 28.053C48.1925 28.2205 48.0166 28.3378 47.8156 28.4048C47.6146 28.4718 47.4052 28.5053 47.1875 28.5053V29.0078H55.3279V28.5053C55.1101 28.5053 54.9007 28.4718 54.6997 28.4048C54.4987 28.3378 54.3145 28.2205 54.147 28.053C53.9963 27.8688 53.8706 27.6259 53.7701 27.3244C53.6864 27.0062 53.6445 26.6126 53.6445 26.1436V19.6112C53.9628 19.1924 54.3312 18.8156 54.75 18.4806C55.1687 18.1288 55.5707 17.953 55.956 17.953C56.2575 17.953 56.492 18.0367 56.6595 18.2042C56.827 18.355 56.9526 18.5643 57.0363 18.8323C57.1368 19.0836 57.1954 19.3934 57.2122 19.7619C57.2457 20.1137 57.2624 20.4905 57.2624 20.8925V26.1436C57.2624 27.0983 57.1619 27.7348 56.9609 28.053C56.76 28.3545 56.4501 28.5053 56.0313 28.5053V29.0078H63.8702V28.5053C63.6022 28.5053 63.351 28.4718 63.1165 28.4048C62.8987 28.3378 62.7061 28.2205 62.5386 28.053C62.3879 27.8688 62.2622 27.6259 62.1617 27.3244C62.078 27.0062 62.0361 26.6126 62.0361 26.1436V20.8925C62.0361 20.0216 61.9189 19.2846 61.6844 18.6816C61.4666 18.0786 61.1567 17.5928 60.7548 17.2244C60.3528 16.8391 59.8754 16.5627 59.3227 16.3952C58.7867 16.2277 58.2088 16.144 57.5891 16.144C57.1368 16.144 56.7097 16.211 56.3077 16.345C55.9225 16.4622 55.554 16.6214 55.2022 16.8224C54.8672 17.0066 54.5574 17.2244 54.2726 17.4756C53.9879 17.7101 53.745 17.953 53.544 18.2042H53.4938L53.3933 16.0938H53.343C52.5055 16.3617 51.5927 16.6046 50.6044 16.8224C49.633 17.0401 48.5777 17.1741 47.4387 17.2244V17.752C47.5727 17.752 47.7235 17.7771 47.891 17.8273C48.0585 17.8608 48.2092 17.9446 48.3432 18.0786C48.494 18.2126 48.6196 18.3885 48.7201 18.6062Z" fill="#151DED"/>
<path fill-rule="evenodd" clip-rule="evenodd" d="M63.585 19.9127C63.3003 20.6664 63.1579 21.5123 63.1579 22.4503C63.1579 23.405 63.317 24.2927 63.6352 25.1135C63.9535 25.9342 64.4141 26.6461 65.0171 27.249C65.6368 27.852 66.3989 28.3294 67.3034 28.6811C68.2247 29.0161 69.2883 29.1836 70.4942 29.1836C71.1977 29.1836 71.8091 29.0915 72.3283 28.9073C72.8476 28.723 73.2998 28.5053 73.6851 28.254C74.0589 28.0103 74.3617 27.7586 74.5936 27.4991C74.4738 27.1661 74.3991 26.8296 74.3801 26.525C74.1335 26.6193 73.8767 26.6932 73.6097 26.7466C73.2077 26.8303 72.7722 26.8722 72.3032 26.8722C71.7002 26.8722 71.1642 26.7633 70.6952 26.5456C70.243 26.3278 69.8494 26.0347 69.5144 25.6662C69.1794 25.2977 68.903 24.8706 68.6853 24.3849C68.4675 23.8824 68.3 23.3631 68.1828 22.8271H73.1323C73.4171 22.8271 73.6767 22.8188 73.9112 22.802C74.1624 22.7853 74.3718 22.7266 74.5393 22.6261C74.7235 22.5256 74.8575 22.3749 74.9413 22.1739C75.0418 21.9729 75.092 21.6965 75.092 21.3448C75.092 20.658 74.958 20.0048 74.69 19.3851C74.4388 18.7653 74.0703 18.221 73.5846 17.752C73.1156 17.283 72.5377 16.9061 71.851 16.6214C71.1642 16.3366 70.3854 16.1942 69.5144 16.1942C68.5429 16.1942 67.6635 16.345 66.8763 16.6465C66.0891 16.948 65.4191 17.3751 64.8663 17.9278C64.3136 18.4806 63.8865 19.1422 63.585 19.9127ZM70.7455 20.4152C70.7957 20.9344 70.8209 21.3867 70.8209 21.7719H68.0069C67.9567 21.2862 67.9315 20.8172 67.9315 20.3649C67.9315 19.9629 67.9483 19.5777 67.9818 19.2092C68.0153 18.8407 68.0823 18.5141 68.1828 18.2293C68.2833 17.9278 68.4089 17.6933 68.5597 17.5258C68.7272 17.3584 68.9365 17.2746 69.1878 17.2746C69.506 17.2746 69.7656 17.4337 69.9666 17.752C70.1844 18.0702 70.3519 18.4638 70.4691 18.9328C70.6031 19.4018 70.6952 19.8959 70.7455 20.4152Z" fill="#151DED"/>
<path fill-rule="evenodd" clip-rule="evenodd" d="M75.4887 25.9426C75.4887 25.2558 75.673 24.6947 76.0415 24.2592C76.4267 23.807 76.9041 23.4217 77.4736 23.1035C78.0431 22.7853 78.6544 22.5089 79.3077 22.2744C79.9609 22.0399 80.5723 21.797 81.1418 21.5458C81.7112 21.2778 82.1802 20.9679 82.5487 20.6162C82.934 20.2644 83.1266 19.8206 83.1266 19.2846V19.1338C83.1266 18.9328 83.1098 18.7235 83.0763 18.5057C83.0428 18.288 82.9842 18.0953 82.9005 17.9278C82.8335 17.7436 82.7246 17.6012 82.5739 17.5007C82.4399 17.3835 82.2724 17.3249 82.0714 17.3249C81.7866 17.3249 81.5521 17.4505 81.3679 17.7017C81.2004 17.9362 81.0664 18.2377 80.9659 18.6062C80.8821 18.9579 80.8319 19.3516 80.8151 19.7871C80.7984 20.2226 80.7984 20.6413 80.8151 21.0433C80.5304 21.1605 80.2121 21.2527 79.8604 21.3197C79.5254 21.3867 79.182 21.4202 78.8303 21.4202C78.5288 21.4202 78.2357 21.395 77.9509 21.3448C77.6662 21.2778 77.4149 21.1689 77.1972 21.0182C76.9962 20.8674 76.8287 20.6748 76.6947 20.4403C76.5607 20.2058 76.4937 19.9127 76.4937 19.5609C76.4937 19.1589 76.611 18.757 76.8455 18.355C77.08 17.953 77.4317 17.6012 77.9007 17.2997C78.3697 16.9815 78.9643 16.7302 79.6845 16.546C80.4048 16.345 81.2423 16.2445 82.197 16.2445C82.9507 16.2445 83.6626 16.3199 84.3326 16.4706C85.0193 16.6214 85.6223 16.8977 86.1415 17.2997C86.6608 17.685 87.0711 18.2293 87.3726 18.9328C87.6741 19.6196 87.8249 20.5073 87.8249 21.596V25.9928C87.8249 26.4451 87.8751 26.8136 87.9756 27.0983C88.0929 27.383 88.2353 27.6092 88.4027 27.7767C88.587 27.9274 88.788 28.0363 89.0057 28.1033C89.3965 28.2235 89.8607 28.1457 89.945 28.053C90.1125 27.8688 90.2381 27.6259 90.3218 27.3244C90.4223 27.0062 90.4726 26.6126 90.4726 26.1436V19.4604C90.4726 19.1087 90.4223 18.824 90.3218 18.6062C90.2213 18.3885 90.0957 18.2126 89.945 18.0786C89.811 17.9446 89.6602 17.8608 89.4927 17.8273C89.3252 17.7771 89.1745 17.752 89.0405 17.752V17.2244C90.1795 17.1741 91.2263 17.0401 92.181 16.8224C93.1525 16.6046 94.057 16.3617 94.8945 16.0938H94.9447L95.1206 18.5308H95.1709C95.7571 17.8776 96.3768 17.3249 97.0301 16.8726C97.7001 16.4036 98.3868 16.1691 99.0903 16.1691C99.5258 16.1691 99.8943 16.2445 100.196 16.3952C100.514 16.5292 100.782 16.7219 101 16.9731C101.218 17.2076 101.377 17.4756 101.477 17.7771C101.578 18.0786 101.628 18.3885 101.628 18.7067C101.628 19.3097 101.402 19.8373 100.95 20.2895C100.514 20.725 99.9697 20.9428 99.3164 20.9428C99.0149 20.9428 98.6883 20.8758 98.3366 20.7418C98.3366 20.6078 98.3031 20.4487 98.2361 20.2644C98.1858 20.0802 98.0937 19.9043 97.9597 19.7368C97.8424 19.5693 97.6833 19.4269 97.4823 19.3097C97.2813 19.1924 97.0552 19.1338 96.804 19.1338C96.5527 19.1338 96.3266 19.1924 96.1256 19.3097C95.9246 19.4269 95.7571 19.5861 95.6231 19.7871C95.5059 19.9713 95.4137 20.1891 95.3467 20.4403C95.2797 20.6748 95.2462 20.9177 95.2462 21.1689V26.1436C95.2462 26.6126 95.2881 27.0062 95.3719 27.3244C95.4724 27.6259 95.598 27.8688 95.7487 28.053C95.9162 28.2205 96.1005 28.3378 96.3015 28.4048C96.5025 28.4718 96.7118 28.5053 96.9296 28.5053V29.0078H88.7892V29.0047C88.655 29.0308 88.5094 29.057 88.3525 29.0831C88.051 29.1334 87.7244 29.1753 87.3726 29.2088C87.0376 29.259 86.6943 29.2841 86.3425 29.2841C85.639 29.2841 85.0026 29.1753 84.4331 28.9575C83.8803 28.7398 83.537 28.3378 83.403 27.7515H83.3527C83.2187 27.9023 83.0512 28.0698 82.8502 28.254C82.6492 28.4383 82.4064 28.6058 82.1216 28.7565C81.8536 28.9073 81.527 29.0329 81.1418 29.1334C80.7733 29.2339 80.3378 29.2841 79.8353 29.2841C79.1988 29.2841 78.6125 29.2171 78.0766 29.0831C77.5406 28.9659 77.08 28.7733 76.6947 28.5053C76.3095 28.2373 76.008 27.8939 75.7902 27.4752C75.5892 27.0564 75.4887 26.5456 75.4887 25.9426ZM80.589 25.7667C80.589 26.2357 80.6979 26.6042 80.9156 26.8722C81.1334 27.1234 81.3846 27.249 81.6694 27.249C81.9541 27.249 82.2221 27.1737 82.4734 27.0229C82.7246 26.8722 82.9172 26.6712 83.0512 26.4199V21.9729H83.001C82.6995 22.1906 82.4064 22.4419 82.1216 22.7266C81.8369 22.9946 81.5772 23.2877 81.3428 23.606C81.125 23.9075 80.9408 24.2425 80.79 24.611C80.656 24.9795 80.589 25.3647 80.589 25.7667Z" fill="#151DED"/>
</svg>